<svg width="92" height="80" viewBox="0 0 92 80" fill="none" xmlns="http://www.w3.org/2000/svg">
<path d="M6.95354 25.7143C7.07333 25.7832 11.2645 28.1766 14.7188 28.1766C18.173 28.1766 22.5081 25.7832 22.6322 25.7143H24.2402C26.8424 25.7221 28.9375 27.832 28.9375 30.4338V48.5714C28.9375 51.7273 26.3911 54.2857 23.25 54.2857V75.7143C23.25 78.0813 21.3402 80 18.9844 80H10.4531C8.09726 80 6.1875 78.0813 6.1875 75.7143V54.2857C3.0464 54.2857 0.5 51.7273 0.5 48.5714V30.5825C0.5 27.8989 2.66125 25.7225 5.34539 25.7143H6.95354ZM38.2348 25.7143C38.3546 25.7832 42.5459 28.1766 46 28.1766C49.4541 28.1766 53.7894 25.7832 53.9134 25.7143H55.5214C58.1236 25.7221 60.2188 27.832 60.2188 30.4338V48.5714C60.2188 51.7273 57.6723 54.2857 54.5312 54.2857V75.7143C54.5312 78.0813 52.6215 80 50.2656 80H41.7344C39.3785 80 37.4688 78.0813 37.4688 75.7143V54.2857C34.3277 54.2857 31.7812 51.7273 31.7812 48.5714V30.5825C31.7812 27.8989 33.9425 25.7225 36.6266 25.7143H38.2348ZM81.5469 80H73.0156C70.6598 80 68.75 78.0813 68.75 75.7143V54.2857C65.6089 54.2857 63.0625 51.7273 63.0625 48.5714V30.5825C63.0625 27.8939 65.2319 25.7143 67.9079 25.7143H69.516C69.516 25.7143 73.7778 28.1766 77.2812 28.1766C80.7847 28.1766 85.1947 25.7143 85.1947 25.7143H86.8027C89.397 25.7143 91.5 27.8271 91.5 30.4338V48.5714C91.5 51.7273 88.9536 54.2857 85.8125 54.2857V75.7143C85.8125 78.0754 83.9123 79.9904 81.5469 80ZM14.7188 22.8571C21.0009 22.8571 26.0938 17.7404 26.0938 11.4286C26.0938 5.11679 21.0009 0 14.7188 0C8.43655 0 3.34375 5.11679 3.34375 11.4286C3.34375 17.7404 8.43655 22.8571 14.7188 22.8571ZM46 22.8571C52.2822 22.8571 57.375 17.7404 57.375 11.4286C57.375 5.11679 52.2822 0 46 0C39.7178 0 34.625 5.11679 34.625 11.4286C34.625 17.7404 39.7178 22.8571 46 22.8571ZM88.6562 11.4286C88.6562 17.7404 83.5634 22.8571 77.2812 22.8571C70.9991 22.8571 65.9062 17.7404 65.9062 11.4286C65.9062 5.11679 70.9991 0 77.2812 0C83.5634 0 88.6562 5.11679 88.6562 11.4286Z" fill="#457B9D"/>
</svg>
