<svg width="24" height="24" viewBox="0 0 24 24" fill="none" xmlns="http://www.w3.org/2000/svg">
<path d="M20.4853 3.51473C18.2188 1.24819 15.2053 0 12 0C8.79469 0 5.78123 1.24819 3.51469 3.51473C1.24819 5.78123 0 8.79469 0 12C0 15.2053 1.24819 18.2188 3.51469 20.4853C5.78123 22.7518 8.79469 24 12 24C15.2053 24 18.2188 22.7518 20.4853 20.4853C22.7518 18.2188 24 15.2053 24 12C24 8.79469 22.7518 5.78123 20.4853 3.51473ZM12 2.6842C16.7242 2.6842 20.6379 6.219 21.2362 10.7826L15.4617 10.2202C14.8142 8.96602 13.506 8.106 12 8.106C10.494 8.106 9.18581 8.96602 8.53833 10.2202L2.76375 10.7826C3.36206 6.219 7.27584 2.6842 12 2.6842ZM2.76042 13.1895L8.46656 13.634C8.82703 14.4098 9.43542 15.048 10.1897 15.446L10.5637 21.205C6.4928 20.5723 3.28589 17.2942 2.76042 13.1895ZM12 13.2098C11.3329 13.2098 10.7902 12.6671 10.7902 12C10.7902 11.3329 11.333 10.7902 12 10.7902C12.667 10.7902 13.2098 11.333 13.2098 12C13.2098 12.667 12.6671 13.2098 12 13.2098ZM13.4364 21.205L13.8104 15.446C14.5647 15.0481 15.173 14.4098 15.5335 13.634L21.2397 13.1895C20.7141 17.2942 17.5072 20.5723 13.4364 21.205Z" fill="#FF1B1C"/>
</svg>
