<svg width="112" height="68" viewBox="0 0 112 68" fill="none" xmlns="http://www.w3.org/2000/svg">
<path d="M101.663 45.4371L101.601 34.8727L111.89 29.1871L55.8466 0L0.109619 29.7708L22.4561 42.4407L22.5006 49.9691L22.5052 50.5704L22.7093 50.4738C22.4738 50.7895 22.3228 51.1142 22.3274 51.4388C22.3451 55.1415 37.4811 58.0719 56.1626 57.9713C74.8349 57.8748 89.9487 54.7733 89.9355 51.0791C89.9355 50.7545 89.7623 50.4388 89.5313 50.1142L89.7354 50.2107V49.6095L89.6954 42.0505L99.3849 36.0972L99.4381 45.4505C98.3718 45.9023 97.6302 46.9377 97.6388 48.1488C97.6479 49.737 98.9538 51.0221 100.575 51.0091C102.206 51.0001 103.499 49.7015 103.49 48.1178C103.481 46.9067 102.734 45.8802 101.663 45.4371ZM56.1489 55.4222C39.5737 55.5142 26.1301 53.7154 26.117 51.4213C26.1038 49.1267 39.5292 47.2009 56.1048 47.1173C72.6846 47.0253 86.1237 48.8151 86.1328 51.1052C86.1455 53.3912 72.7287 55.3346 56.1489 55.4222ZM88.9311 35.9171C86.6875 33.5876 78.6463 27.4367 55.998 27.5643C33.3182 27.6828 25.3794 33.9082 23.1627 36.2728L23.1495 34.0442C23.1495 34.0442 29.5823 24.3793 55.9807 24.2432C82.3654 24.1027 88.9183 33.6931 88.9183 33.6931L88.9311 35.9171ZM98.2163 51.6404L97.0745 68C100.606 62.5205 103.556 64.5604 103.556 64.5604L103.486 51.6139C99.6909 53.0841 98.2163 51.6404 98.2163 51.6404Z" fill="#457B9D"/>
</svg>
