<svg width="40" height="40" viewBox="0 0 40 40" fill="none" xmlns="http://www.w3.org/2000/svg">
<g clip-path="url(#clip0_904_4329)">
<path d="M20 40C31.0457 40 40 31.0457 40 20C40 8.9543 31.0457 0 20 0C8.9543 0 0 8.9543 0 20C0 31.0457 8.9543 40 20 40Z" fill="#D4E0E8"/>
<path d="M16.9773 16.2727V25H15.9545L11.1989 18.1477H11.1136V25H10.0568V16.2727H11.0795L15.8523 23.142H15.9375V16.2727H16.9773ZM22.0408 15.8636L19.2283 26.3125H18.3079L21.1204 15.8636H22.0408ZM23.7273 25H22.6193L25.8239 16.2727H26.9148L30.1193 25H29.0114L26.4034 17.6534H26.3352L23.7273 25ZM24.1364 21.5909H28.6023V22.5284H24.1364V21.5909Z" fill="#808BA7"/>
</g>
<defs>
<clipPath id="clip0_904_4329">
<rect width="40" height="40" fill="white"/>
</clipPath>
</defs>
</svg>
