<svg width="91" height="108" viewBox="0 0 91 108" fill="none" xmlns="http://www.w3.org/2000/svg">
<path d="M47.9167 49.0624C47.1747 50.3045 46.1819 50.9256 44.9383 50.9256C44.1115 50.9256 43.3908 50.6522 42.776 50.1044C42.1612 49.5504 41.6842 48.722 41.345 47.6203C41.0129 46.5113 40.8469 45.1289 40.8469 43.4721C40.854 41.0224 41.2285 39.1837 41.9704 37.9552C42.7124 36.7276 43.7017 36.1129 44.9383 36.1129C45.765 36.1129 46.4822 36.3872 47.0899 36.934C47.7047 37.4817 48.1782 38.2992 48.5103 39.3874C48.8495 40.4756 49.019 41.8371 49.019 43.4721C49.0261 45.9572 48.6587 47.8203 47.9167 49.0624Z" fill="#457B9D"/>
<path fill-rule="evenodd" clip-rule="evenodd" d="M91 44.0968L84.0301 35.3551L86.504 24.4706L76.3954 19.6127L73.8724 8.74349L62.6467 8.70909L55.624 0L45.5 4.82712L35.376 0L28.3538 8.70819L17.1276 8.74259L14.6055 19.6118L4.49645 24.4697L6.97049 35.3542L0 44.0968L6.96992 52.8385L4.496 63.723L14.6046 68.58L17.0502 79.4492L23.8107 79.4709V108L45.2668 96.3224L66.7229 108V79.4718L73.7941 79.451L76.3562 68.5809L86.4849 63.7239L84.0207 52.8385L91 44.0968ZM17.6261 50.9473V54.2318H33.1013V50.5046H23.9858V50.357L27.1551 47.2726C28.646 45.9255 29.8014 44.7704 30.6211 43.8089C31.4408 42.8402 32.0096 41.9594 32.3276 41.1663C32.6527 40.3733 32.8151 39.5702 32.8151 38.7555C32.8151 37.5134 32.4936 36.4116 31.8506 35.4502C31.2075 34.4887 30.3067 33.7373 29.1478 33.1969C27.9959 32.6491 26.6427 32.3757 25.0881 32.3757C23.576 32.3757 22.2405 32.66 21.0816 33.2285C19.9228 33.7971 19.0218 34.601 18.3788 35.6394C17.7357 36.6778 17.4142 37.9027 17.4142 39.314H21.7705C21.7705 38.8243 21.8385 38.3834 21.9743 37.9896C22.0295 37.8302 22.0958 37.6781 22.1733 37.5342C22.3394 37.2264 22.5487 36.962 22.8013 36.743C22.9571 36.6072 23.1294 36.4886 23.3181 36.3872C23.8128 36.1201 24.3921 35.987 25.0563 35.987C25.6923 35.987 26.2612 36.1129 26.7629 36.3654C27.2646 36.6117 27.6603 36.9657 27.95 37.4292C28.2397 37.8855 28.3846 38.4296 28.3846 39.0606C28.3846 39.4335 28.3344 39.7911 28.2338 40.1315C28.1812 40.309 28.1148 40.4819 28.0349 40.6503C27.8016 41.1346 27.4589 41.6298 27.0066 42.135C26.5615 42.6402 26.0103 43.2087 25.3531 43.8406L17.6261 50.9473ZM40.2321 53.3681C41.5464 54.2526 43.1152 54.6989 44.9383 54.7052C46.7613 54.7052 48.3265 54.2634 49.6338 53.379C50.9411 52.4945 51.9445 51.2135 52.644 49.5359C53.3506 47.8593 53.704 45.8377 53.704 43.4721C53.7111 41.121 53.3613 39.1203 52.6546 37.4708C51.948 35.815 50.9375 34.5512 49.6232 33.6812C48.316 32.8112 46.7543 32.3757 44.9383 32.3757C43.1222 32.3757 41.557 32.8112 40.2427 33.6812C38.9354 34.5449 37.9285 35.8041 37.2219 37.4609C36.5224 39.1176 36.1725 41.121 36.1725 43.4721C36.1654 45.8305 36.5117 47.8484 37.2113 49.526C37.9179 51.2035 38.9249 52.4845 40.2321 53.3681ZM63.4634 45.3778V50.9473H67.258V45.3778H72.8652V41.609H67.258V36.0395H63.4634V41.609H57.8563V45.3778H63.4634Z" fill="#457B9D"/>
</svg>
